<svg width="1283" height="1278" viewBox="0 0 1283 1278" fill="none" xmlns="http://www.w3.org/2000/svg">
<circle cx="1061" cy="237" r="55.5" stroke="white" stroke-width="11"/>
<circle cx="1203" cy="491" r="55.5" stroke="white" stroke-width="11"/>
<circle cx="1222" cy="634" r="55.5" stroke="white" stroke-width="11"/>
<circle cx="1208" cy="783" r="55.5" stroke="white" stroke-width="11"/>
<circle cx="1155" cy="915" r="55.5" stroke="white" stroke-width="11"/>
<circle cx="1071" cy="1030" r="55.5" stroke="white" stroke-width="11"/>
<circle cx="966" cy="1119" r="55.5" stroke="white" stroke-width="11"/>
<circle cx="844" cy="1180" r="55.5" stroke="white" stroke-width="11"/>
<circle cx="707" cy="1217" r="55.5" stroke="white" stroke-width="11"/>
<circle cx="559" cy="1217" r="55.5" stroke="white" stroke-width="11"/>
<circle cx="559" cy="1217" r="55.5" stroke="white" stroke-width="11"/>
<circle cx="422" cy="1180" r="55.5" stroke="white" stroke-width="11"/>
<circle cx="300" cy="1111" r="55.5" stroke="white" stroke-width="11"/>
<circle cx="194" cy="1010" r="55.5" stroke="white" stroke-width="11"/>
<circle cx="122" cy="888" r="55.5" stroke="white" stroke-width="11"/>
<circle cx="72" cy="746" r="55.5" stroke="white" stroke-width="11"/>
<circle cx="61" cy="604" r="55.5" stroke="white" stroke-width="11"/>
<circle cx="91" cy="458" r="55.5" stroke="white" stroke-width="11"/>
<circle cx="160" cy="329" r="55.5" stroke="white" stroke-width="11"/>
<circle cx="249" cy="214" r="55.5" stroke="white" stroke-width="11"/>
<circle cx="371" cy="129" r="55.5" stroke="white" stroke-width="11"/>
<circle cx="503" cy="79" r="55.5" stroke="white" stroke-width="11"/>
<circle cx="646" cy="61" r="55.5" stroke="white" stroke-width="11"/>
<circle cx="802" cy="79" r="55.5" stroke="white" stroke-width="11"/>
<circle cx="945" cy="144" r="55.5" stroke="white" stroke-width="11"/>
<circle cx="1147" cy="359" r="55.5" stroke="white" stroke-width="11"/>
</svg>
